<?xml version="1.0" encoding="UTF-8" standalone="no"?>
<!-- Created with Inkscape (http://www.inkscape.org/) -->

<svg
   width="151mm"
   height="153mm"
   viewBox="0 0 151 153"
   version="1.1"
   id="svg5"
   sodipodi:docname="gallows.svg"
   inkscape:version="1.2.2 (732a01da63, 2022-12-09)"
   xmlns:inkscape="http://www.inkscape.org/namespaces/inkscape"
   xmlns:sodipodi="http://sodipodi.sourceforge.net/DTD/sodipodi-0.dtd"
   xmlns="http://www.w3.org/2000/svg"
   xmlns:svg="http://www.w3.org/2000/svg">
  <sodipodi:namedview
     id="namedview7"
     pagecolor="#ffffff"
     bordercolor="#000000"
     borderopacity="0.25"
     inkscape:showpageshadow="2"
     inkscape:pageopacity="0.0"
     inkscape:pagecheckerboard="true"
     inkscape:deskcolor="#d1d1d1"
     inkscape:document-units="mm"
     showgrid="false"
     inkscape:zoom="1.5625561"
     inkscape:cx="298.22929"
     inkscape:cy="255.99081"
     inkscape:window-width="1920"
     inkscape:window-height="1057"
     inkscape:window-x="1912"
     inkscape:window-y="-8"
     inkscape:window-maximized="1"
     inkscape:current-layer="g657"
     showguides="true">
    <inkscape:grid
       type="xygrid"
       id="grid178"
       originx="0"
       originy="0" />
  </sodipodi:namedview>
  <defs
     id="defs2" />
  <g
     inkscape:label="Layer 1"
     inkscape:groupmode="layer"
     id="layer1">
    <g
       id="g657"
       transform="rotate(90,161.69179,136.07241)">
      <path
         style="fill:#000000;stroke-width:0.292016"
         id="path347"
         d="m 172.06251,236.74247 c -1.42775,0.0218 -2.85569,0.0149 -4.2835,0.009 -1.14841,-0.004 -2.2968,-0.005 -3.4452,10e-6 -1.30406,0.004 -2.60812,-0.002 -3.91217,1.3e-4 -1.32246,-0.001 -2.64492,0.001 -3.96738,0.002 -1.41162,0.004 -2.82324,-6.4e-4 -4.23486,-0.001 -1.25023,-0.005 -2.50045,9.8e-4 -3.75069,-0.002 -1.21557,-0.001 -2.43114,0.002 -3.64671,1.6e-4 -1.07722,-0.006 -2.15446,-0.002 -3.23169,-9.7e-4 -1.24469,0.002 -2.48938,0.004 -3.73406,-2e-4 -1.17427,0.002 -2.34854,0.001 -3.52281,-0.002 -1.03068,-0.002 -2.06135,0.001 -3.09203,-9.7e-4 -0.94284,-0.004 -1.88569,-0.002 -2.82852,10e-4 -1.03724,0.001 -2.07447,-0.002 -3.1117,-0.002 -1.09429,0.005 -2.18859,0.001 -3.28289,0.001 -1.01913,-9.7e-4 -2.03827,-0.002 -3.0574,-6.5e-4 -1.08573,0.002 -2.17146,-0.001 -3.25718,0.004 -1.11242,0.005 -2.22482,-0.004 -3.33723,-0.005 -0.90286,3.3e-4 -1.80572,-9.6e-4 -2.70857,-0.002 -0.81816,-0.002 -1.63631,0.001 -2.45446,0.001 -1.01799,0.004 -2.03599,0.004 -3.05399,0.001 -0.91114,-0.002 -1.82229,-9.7e-4 -2.73344,-0.001 -0.91831,-9.7e-4 -1.836612,0.001 -2.75492,1.3e-4 -0.93268,-0.005 -1.865344,3.1e-4 -2.798013,0.006 -1.490464,0.009 -2.980981,0.009 -4.471456,0.002 -0.946579,-0.005 -1.893155,-0.01 -2.839739,-0.011 -1.289729,0.0141 -2.579502,0.0144 -3.869266,0.011 -1.088014,-0.004 -2.176029,-0.007 -3.264048,-0.006 -0.977382,0.001 -1.954763,-0.004 -2.932144,-0.002 -1.060437,-0.005 -2.120816,0.006 -3.181245,0.009 -1.177477,0.002 -2.35495,-0.004 -3.532417,-0.009 -0.979935,-0.005 -1.95988,0.002 -2.939807,0.007 -1.564836,0.002 -3.129669,0.007 -4.694504,0.01 -1.393005,0.002 -2.785992,-0.009 -4.178978,-0.0156 -0.798076,-0.005 -1.596149,-0.006 -2.39423,-0.002 -1.007705,0.001 -2.015411,0.002 -3.023116,0.005 -1.243253,-6.4e-4 -2.486501,0.005 -3.729755,0.002 -0.957839,-0.002 -1.91567,-0.007 -2.873509,-0.01 -0.832189,-3.1e-4 -1.66438,-3.1e-4 -2.496558,0.005 -1.569631,0.007 -3.139247,0.0168 -4.708896,0.0144 -1.499121,-0.001 -2.99825,-0.005 -4.497363,-0.011 -1.077172,-0.005 -2.154341,-0.001 -3.23151,-0.001 -1.169792,0.004 -2.339586,2.8e-4 -3.509381,0.001 -1.036883,2e-4 -2.073759,-0.002 -3.110635,-0.006 -0.135207,-3.3e-4 -0.270414,-6.5e-4 -0.40562,-9.8e-4 0,0 3.201695,2.83356 3.201695,2.83356 v 0 c 0.134387,-3.2e-4 0.268772,-6.5e-4 0.403156,-9.6e-4 1.032333,-0.004 2.06466,-0.006 3.096996,-0.006 1.171008,10e-4 2.342015,-0.001 3.513018,10e-4 1.075902,-4e-5 2.151801,0.002 3.227702,-10e-4 1.490607,-0.007 2.98123,-0.01 4.471848,-0.011 1.580443,-0.002 3.160858,0.007 4.741283,0.0144 0.835895,0.005 1.671799,0.005 2.507702,0.005 0.950412,-0.002 1.900819,-0.007 2.851229,-0.01 1.245397,-0.002 2.490785,0.004 3.736179,0.002 1.01152,0.002 2.023038,0.004 3.034559,0.005 0.79652,0.004 1.593035,0.004 2.38955,-0.002 1.38126,-0.007 2.76252,-0.0175 4.143798,-0.0156 1.572469,0.002 3.144936,0.007 4.717405,0.01 0.985104,0.005 1.970227,0.011 2.95534,0.007 1.170755,-0.005 2.341512,-0.0122 3.512277,-0.009 1.066893,0.002 2.133738,0.0139 3.200638,0.009 0.975747,9.7e-4 1.951493,-0.004 2.927242,-0.002 1.083715,0.001 2.167424,-0.002 3.251136,-0.006 1.298181,-0.004 2.596367,-0.002 3.894511,0.011 0.93786,-0.002 1.875718,-0.007 2.813574,-0.0122 1.492697,-0.006 2.985439,-0.006 4.478125,0.002 0.936853,0.005 1.873697,0.011 2.810557,0.006 0.91841,-10e-4 1.83681,9.8e-4 2.75522,1.3e-4 0.91005,-3.2e-4 1.82011,6.5e-4 2.73016,-0.001 1.0192,-0.002 2.0384,-0.001 3.05759,0.001 0.81936,3.2e-4 1.63872,0.005 2.45808,0.001 0.9007,-0.002 1.80139,-0.004 2.7021,-0.002 1.1092,-5e-5 2.21841,-0.01 3.32762,-0.004 1.08805,0.005 2.17611,9.6e-4 3.26416,0.004 1.01855,9.7e-4 2.03709,5e-5 3.05563,-6.5e-4 1.09548,1e-5 2.19095,-0.004 3.28642,0.001 1.03581,6.4e-4 2.07161,-0.004 3.10742,-0.002 0.9441,0.004 1.88823,0.005 2.83233,10e-4 1.02995,-0.002 2.05988,0.001 3.08983,-9.6e-4 1.17282,-0.004 2.34566,-0.005 3.51849,-0.002 1.24453,-0.004 2.48907,-0.002 3.73361,-2e-4 1.07649,0.002 2.15299,0.005 3.22948,-9.7e-4 1.2157,-0.002 2.4314,0.002 3.64709,1.7e-4 1.2484,-0.004 2.49679,0.002 3.74519,-0.002 1.41072,-6.5e-4 2.82144,-0.005 4.23216,-0.001 1.32399,6.3e-4 2.64799,0.004 3.97198,0.002 1.30415,0.002 2.60831,-0.004 3.91246,1.2e-4 1.1484,0.005 2.2968,0.005 3.44521,1e-5 1.43447,-0.006 2.86907,-0.0128 4.30347,0.009 0,0 -3.20163,-2.83351 -3.20163,-2.83351 z" />
      <path
         style="fill:#000000;stroke-width:0.265691"
         id="path349"
         d="m 31.72736,238.9402 c -0.01968,-1.12937 -0.01061,-2.25902 -0.0057,-3.3885 0.0088,-1.26368 -0.0091,-2.52731 -0.02685,-3.79083 -0.03488,-2.45812 -0.0084,-4.91646 0.0059,-7.37464 0.02191,-1.5941 0.0083,-3.18826 -0.0032,-4.78238 -0.01529,-2.61763 -0.0145,-5.23533 -0.0204,-7.85299 -0.01474,-2.70565 0.005,-5.41123 0.01789,-8.11681 0.0083,-1.96492 0.0058,-3.92986 0.0013,-5.89478 -0.0077,-2.35854 -0.0097,-4.71704 -0.0066,-7.07559 0.0064,-2.07807 0.0027,-4.15617 0.0126,-6.23424 0.01503,-1.52892 0.007,-3.05788 0.0046,-4.58684 0.0031,-1.34416 0.0098,-2.68827 0.0083,-4.03243 0.0016,-0.79153 5.29e-4,-0.40338 0.0034,-1.16445 0,0 -3.512008,-1.80448 -3.512008,-1.80448 v 0 c 0.0029,0.76366 0.0016,0.37436 0.0034,1.1679 -0.0016,1.34701 0.0052,2.69397 0.0083,4.04098 -0.0024,1.53052 -0.01042,3.06104 0.0046,4.59154 0.0099,2.08239 0.0062,4.1648 0.01259,6.2472 0.003,2.35625 0.0011,4.71249 -0.0066,7.06874 -0.0046,1.96534 -0.007,3.9307 0.0013,5.89605 0.01286,2.7117 0.03261,5.42342 0.01789,8.13519 -0.0059,2.61067 -0.0051,5.22139 -0.0204,7.83202 -0.01156,1.59304 -0.025,3.18611 -0.0031,4.77913 0.01415,2.46018 0.0408,4.92054 0.0059,7.38067 -0.01786,1.25432 -0.03568,2.50876 -0.02685,3.76324 0.0049,1.12752 0.01405,2.25522 -0.0057,3.38263 0,0 3.529894,1.81367 3.529894,1.81367 z" />
      <path
         style="fill:#000000;stroke-width:0.386767"
         id="path353"
         d="m 178.93719,300.28884 c -0.0974,-3.28601 -0.12512,-6.57259 -0.16709,-9.85895 -0.0737,-6.16025 -0.0713,-12.3206 -0.05,-18.48094 0.0455,-5.82111 0.008,-11.64226 -0.001,-17.46339 -0.11664,-7.49377 -0.0749,-14.98777 -0.0356,-22.48167 0.04,-6.6702 0.009,-13.34045 0.004,-20.01067 -0.006,-6.51285 0.0355,-13.02569 0.0209,-19.53854 -0.0453,-5.19579 0.0473,-10.39131 0.12235,-15.58682 0.0159,-4.46452 -0.079,-8.92879 -0.0846,-13.39332 -0.0303,-3.85235 0.10114,-7.70425 0.12136,-11.55645 -0.0159,-2.16218 -0.0336,-4.32433 -0.0332,-6.48653 0,0 -6.76033,-1.87775 -6.76033,-1.87775 v 0 c 3.7e-4,2.15604 -0.0179,4.31202 -0.0333,6.46805 0.0204,3.87467 0.15146,7.74906 0.12157,11.6239 -0.006,4.44886 -0.10079,8.89746 -0.0846,13.3463 0.0749,5.21819 0.1675,10.43636 0.12236,15.6548 -0.0138,6.51675 0.0276,13.03346 0.0209,19.55021 -0.004,6.67109 -0.0355,13.34219 0.004,20.01327 0.039,7.48729 0.0812,14.97468 -0.0356,22.46186 -0.009,5.82082 -0.0471,11.64166 -0.001,17.46245 0.0209,6.15109 0.0238,12.30215 -0.05,18.45312 -0.0418,3.25539 -0.0691,6.51108 -0.16711,9.76614 0,0 6.96621,1.93493 6.96621,1.93493 z" />
      <path
         style="fill:#000000;stroke-width:0.250719"
         id="path342"
         d="m 151.23197,239.31808 c 0.27773,0.18967 0.56032,0.3708 0.83318,0.56903 0.99617,0.72369 1.96086,1.50812 2.91859,2.29143 2.17996,1.78295 4.32069,3.6183 6.45064,5.47432 5.14879,4.71509 9.95792,9.86324 14.98969,14.72855 0,0 1.6244,-3.00514 1.6244,-3.00514 v 0 c -0.75856,-0.70813 -1.52752,-1.40266 -2.27565,-2.12441 -4.29096,-4.13972 -8.35412,-8.5691 -12.72396,-12.60913 -0.77567,-0.69851 -1.54458,-1.40641 -2.32697,-2.09555 -1.34403,-1.18386 -2.71704,-2.32645 -4.0647,-3.50521 -0.56012,-0.48992 -1.11027,-0.99395 -1.67288,-1.48033 -0.73877,-0.63868 -1.26487,-1.05425 -1.99494,-1.64222 0,0 -1.7574,3.39866 -1.7574,3.39866 z" />
      <path
         style="fill:#000000;stroke-width:0.250719"
         id="path344"
         d="m 151.4013,236.71621 c 0.27773,-0.18967 0.56032,-0.3708 0.83318,-0.56903 0.99617,-0.72369 1.96086,-1.50812 2.91859,-2.29143 2.17996,-1.78295 4.32069,-3.6183 6.45064,-5.47432 5.14879,-4.71509 9.95792,-9.86324 14.98969,-14.72855 0,0 1.6244,3.00514 1.6244,3.00514 v 0 c -0.75856,0.70813 -1.52752,1.40266 -2.27565,2.12441 -4.29096,4.13972 -8.35412,8.5691 -12.72396,12.60913 -0.77567,0.69851 -1.54458,1.40641 -2.32697,2.09555 -1.34403,1.18386 -2.71704,2.32645 -4.0647,3.50521 -0.56012,0.48992 -1.11027,0.99395 -1.67288,1.48033 -0.73877,0.63868 -1.26487,1.05425 -1.99494,1.64222 0,0 -1.7574,-3.39866 -1.7574,-3.39866 z" />
      <path
         style="fill:#000000;stroke-width:0.236567"
         id="path346"
         d="m 55.442446,236.63243 c -0.271593,-0.17268 -0.547937,-0.33758 -0.814767,-0.51805 -0.974155,-0.65885 -1.917525,-1.37302 -2.854089,-2.08615 -2.131783,-1.62323 -4.225203,-3.29416 -6.308081,-4.98391 -5.035001,-4.29269 -9.73785,-8.97965 -14.658417,-13.4091 0,0 -1.588501,2.73593 -1.588501,2.73593 v 0 c 0.741796,0.64469 1.493762,1.277 2.225358,1.93409 4.19613,3.76887 8.169494,7.80145 12.44276,11.47955 0.758528,0.63593 1.510445,1.28042 2.275544,1.90782 1.314327,1.0778 2.656993,2.11803 3.97487,3.1912 0.547741,0.44603 1.085733,0.90491 1.635909,1.34772 0.722444,0.58146 1.236917,0.9598 1.950852,1.4951 0,0 1.718562,-3.0942 1.718562,-3.0942 z" />
    </g>
  </g>
</svg>
