<?xml version="1.0" encoding="UTF-8" standalone="no"?>
<!-- Created with Inkscape (http://www.inkscape.org/) -->

<svg
   width="18mm"
   height="123mm"
   viewBox="0 0 18 123"
   version="1.1"
   id="svg5"
   sodipodi:docname="hangman3.svg"
   inkscape:version="1.2.2 (732a01da63, 2022-12-09)"
   xmlns:inkscape="http://www.inkscape.org/namespaces/inkscape"
   xmlns:sodipodi="http://sodipodi.sourceforge.net/DTD/sodipodi-0.dtd"
   xmlns="http://www.w3.org/2000/svg"
   xmlns:svg="http://www.w3.org/2000/svg">
  <sodipodi:namedview
     id="namedview7"
     pagecolor="#ffffff"
     bordercolor="#000000"
     borderopacity="0.25"
     inkscape:showpageshadow="2"
     inkscape:pageopacity="0.0"
     inkscape:pagecheckerboard="true"
     inkscape:deskcolor="#d1d1d1"
     inkscape:document-units="mm"
     showgrid="false"
     inkscape:zoom="1.5625561"
     inkscape:cx="-60.797817"
     inkscape:cy="309.74888"
     inkscape:window-width="1920"
     inkscape:window-height="1057"
     inkscape:window-x="1912"
     inkscape:window-y="-8"
     inkscape:window-maximized="1"
     inkscape:current-layer="g657"
     showguides="true">
    <inkscape:grid
       type="xygrid"
       id="grid178"
       originx="0"
       originy="0" />
  </sodipodi:namedview>
  <defs
     id="defs2" />
  <g
     inkscape:label="Layer 1"
     inkscape:groupmode="layer"
     id="layer1">
    <g
       id="g657"
       transform="rotate(90,161.69179,136.07241)">
      <path
         style="fill:#000000;stroke-width:0.157141"
         id="path355"
         d="m 30.142339,288.87893 c 2.092844,-0.009 4.185939,-0.008 6.278903,-0.007 1.82649,0.004 3.652996,0.002 5.479497,0.004 1.307319,0.002 2.614645,0.001 3.921971,0.002 1.018998,-1.9e-4 2.037989,7.1e-4 3.056985,0.001 1.185359,0.005 2.371638,-0.0198 3.553909,0.0157 0,0 -3.13296,-0.83131 -3.13296,-0.83131 v 0 c -1.194347,-0.0186 -2.390645,-0.009 -3.585926,-0.0131 -1.014981,10e-4 -2.029959,0.002 -3.044942,10e-4 -1.300942,10e-4 -2.601884,7.1e-4 -3.90282,0.003 -1.816511,0.002 -3.633026,2e-5 -5.449527,0.004 -2.111888,2.8e-4 -4.223902,0.002 -6.335674,-0.007 0,0 3.160584,0.82761 3.160584,0.82761 z" />
      <ellipse
         style="fill:#000000;stroke-width:0.264583"
         id="path409"
         cx="58.444099"
         cy="288.87451"
         rx="11.006271"
         ry="8.6356897" />
      <path
         style="fill:#000000;stroke-width:0.264583"
         d="m 72.520262,281.59343 c 15.916762,0 31.833508,0 47.750278,0"
         id="path411" />
      <path
         style="fill:#000000;stroke-width:0.268995"
         id="path413"
         d="m 69.348062,289.35527 c 2.958865,-0.0391 5.918202,-0.0343 8.877287,-0.0306 2.772901,0.003 5.5458,0.009 8.318704,0.0107 2.452892,0.006 4.905805,10e-4 7.358705,-0.003 2.973923,-0.005 5.94787,-0.006 8.921802,-0.005 2.51179,-2.2e-4 5.0236,0.006 7.53537,0.0163 1.46154,0.01 2.92308,0.008 4.38463,0.007 1.81762,-0.002 3.63519,-0.0103 5.45281,-0.009 1.46737,-7.9e-4 2.93472,0.004 4.40206,0.009 0,0 -3.2838,-2.30819 -3.2838,-2.30819 v 0 c -1.4588,0.005 -2.9176,0.01 -4.37641,0.009 -1.82625,10e-4 -3.65245,-0.008 -5.47869,-0.009 -1.45453,-5.3e-4 -2.90903,-0.002 -4.36355,0.007 -2.49631,0.0107 -4.99266,0.0165 -7.48898,0.0163 -2.978667,7.9e-4 -5.957324,8e-5 -8.935981,-0.005 -2.45547,-0.004 -4.91095,-0.008 -7.366416,-0.003 -2.762741,0.002 -5.52548,0.008 -8.288221,0.0107 -2.988126,0.004 -5.97649,0.008 -8.964408,-0.0306 0,0 3.295088,2.31613 3.295088,2.31613 z" />
    </g>
  </g>
</svg>
