<?xml version="1.0" encoding="UTF-8" standalone="no"?>
<!-- Created with Inkscape (http://www.inkscape.org/) -->

<svg
   width="151mm"
   height="156mm"
   viewBox="0 0 151 156"
   version="1.1"
   id="svg5"
   sodipodi:docname="hangman.svg"
   inkscape:version="1.2.2 (732a01da63, 2022-12-09)"
   xmlns:inkscape="http://www.inkscape.org/namespaces/inkscape"
   xmlns:sodipodi="http://sodipodi.sourceforge.net/DTD/sodipodi-0.dtd"
   xmlns="http://www.w3.org/2000/svg"
   xmlns:svg="http://www.w3.org/2000/svg">
  <sodipodi:namedview
     id="namedview7"
     pagecolor="#ffffff"
     bordercolor="#000000"
     borderopacity="0.25"
     inkscape:showpageshadow="2"
     inkscape:pageopacity="0"
     inkscape:pagecheckerboard="0"
     inkscape:deskcolor="#d1d1d1"
     inkscape:document-units="mm"
     showgrid="true"
     inkscape:zoom="0.78127806"
     inkscape:cx="376.30649"
     inkscape:cy="354.54727"
     inkscape:window-width="1920"
     inkscape:window-height="1057"
     inkscape:window-x="-8"
     inkscape:window-y="-8"
     inkscape:window-maximized="1"
     inkscape:current-layer="layer1">
    <inkscape:grid
       type="xygrid"
       id="grid178"
       originx="0"
       originy="0" />
  </sodipodi:namedview>
  <defs
     id="defs2" />
  <g
     inkscape:label="Layer 1"
     inkscape:groupmode="layer"
     id="layer1">
    <g
       id="g657"
       transform="rotate(90,161.18381,135.90308)">
      <path
         style="fill:#000000;stroke-width:0.264583"
         id="path347"
         d="m 172.06251,237.24971 c -1.42775,0.0179 -2.85569,0.0122 -4.2835,0.007 -1.14841,-0.003 -2.2968,-0.004 -3.4452,1e-5 -1.30406,0.003 -2.60812,-0.002 -3.91217,1e-4 -1.32246,-0.001 -2.64492,0.001 -3.96738,0.002 -1.41162,0.003 -2.82324,-5.3e-4 -4.23486,-10e-4 -1.25023,-0.004 -2.50045,8e-4 -3.75069,-0.002 -1.21557,-0.001 -2.43114,0.002 -3.64671,1.3e-4 -1.07722,-0.005 -2.15446,-0.002 -3.23169,-7.9e-4 -1.24469,0.002 -2.48938,0.003 -3.73406,-1.7e-4 -1.17427,0.002 -2.34854,0.001 -3.52281,-0.002 -1.03068,-0.002 -2.06135,10e-4 -3.09203,-8e-4 -0.94284,-0.003 -1.88569,-0.002 -2.82852,10e-4 -1.03724,0.001 -2.07447,-0.002 -3.1117,-0.002 -1.09429,0.004 -2.18859,0.001 -3.28289,0.001 -1.01913,-7.9e-4 -2.03827,-0.002 -3.0574,-5.3e-4 -1.08573,0.002 -2.17146,-10e-4 -3.25718,0.003 -1.11242,0.004 -2.22482,-0.003 -3.33723,-0.004 -0.90286,2.7e-4 -1.80572,-7.9e-4 -2.70857,-0.002 -0.81816,-0.002 -1.63631,0.001 -2.45446,0.001 -1.01799,0.003 -2.03599,0.003 -3.05399,0.001 -0.91114,-0.002 -1.82229,-8e-4 -2.73344,-0.001 -0.91831,-8e-4 -1.836612,0.001 -2.75492,1e-4 -0.93268,-0.004 -1.865344,2.6e-4 -2.798013,0.005 -1.490464,0.007 -2.980981,0.007 -4.471456,0.002 -0.946579,-0.004 -1.893155,-0.008 -2.839739,-0.009 -1.289729,0.0116 -2.579502,0.0118 -3.869266,0.009 -1.088014,-0.003 -2.176029,-0.006 -3.264048,-0.005 -0.977382,0.001 -1.954763,-0.003 -2.932144,-0.002 -1.060437,-0.004 -2.120816,0.005 -3.181245,0.007 -1.177477,0.002 -2.35495,-0.003 -3.532417,-0.007 -0.979935,-0.004 -1.95988,0.002 -2.939807,0.006 -1.564836,0.002 -3.129669,0.006 -4.694504,0.008 -1.393005,0.002 -2.785992,-0.007 -4.178978,-0.0128 -0.798076,-0.004 -1.596149,-0.005 -2.39423,-0.002 -1.007705,10e-4 -2.015411,0.002 -3.023116,0.004 -1.243253,-5.3e-4 -2.486501,0.004 -3.729755,0.002 -0.957839,-0.002 -1.91567,-0.006 -2.873509,-0.008 -0.832189,-2.6e-4 -1.66438,-2.6e-4 -2.496558,0.004 -1.569631,0.006 -3.139247,0.0138 -4.708896,0.0118 -1.499121,-10e-4 -2.99825,-0.004 -4.497363,-0.009 -1.077172,-0.004 -2.154341,-0.001 -3.23151,-0.001 -1.169792,0.003 -2.339586,2.3e-4 -3.509381,0.001 -1.036883,1.7e-4 -2.073759,-0.002 -3.110635,-0.005 -0.135207,-2.7e-4 -0.270414,-5.3e-4 -0.40562,-8e-4 0,0 3.201695,2.32617 3.201695,2.32617 v 0 c 0.134387,-2.6e-4 0.268772,-5.3e-4 0.403156,-7.9e-4 1.032333,-0.003 2.06466,-0.005 3.096996,-0.005 1.171008,0.001 2.342015,-0.001 3.513018,0.001 1.075902,-4e-5 2.151801,0.002 3.227702,-0.001 1.490607,-0.006 2.98123,-0.008 4.471848,-0.009 1.580443,-0.002 3.160858,0.006 4.741283,0.0118 0.835895,0.004 1.671799,0.004 2.507702,0.004 0.950412,-0.002 1.900819,-0.006 2.851229,-0.008 1.245397,-0.002 2.490785,0.003 3.736179,0.002 1.01152,0.002 2.023038,0.003 3.034559,0.004 0.79652,0.003 1.593035,0.003 2.38955,-0.002 1.38126,-0.006 2.76252,-0.0144 4.143798,-0.0128 1.572469,0.002 3.144936,0.006 4.717405,0.008 0.985104,0.004 1.970227,0.009 2.95534,0.006 1.170755,-0.004 2.341512,-0.01 3.512277,-0.007 1.066893,0.002 2.133738,0.0114 3.200638,0.007 0.975747,8e-4 1.951493,-0.003 2.927242,-0.002 1.083715,0.001 2.167424,-0.002 3.251136,-0.005 1.298181,-0.003 2.596367,-0.002 3.894511,0.009 0.93786,-0.002 1.875718,-0.006 2.813574,-0.01 1.492697,-0.005 2.985439,-0.005 4.478125,0.002 0.936853,0.004 1.873697,0.009 2.810557,0.005 0.91841,-0.001 1.83681,8e-4 2.75522,1.1e-4 0.91005,-2.7e-4 1.82011,5.3e-4 2.73016,-0.001 1.0192,-0.002 2.0384,-0.001 3.05759,0.001 0.81936,2.6e-4 1.63872,0.004 2.45808,0.001 0.9007,-0.002 1.80139,-0.003 2.7021,-0.002 1.1092,-4e-5 2.21841,-0.008 3.32762,-0.003 1.08805,0.004 2.17611,7.9e-4 3.26416,0.003 1.01855,8e-4 2.03709,4e-5 3.05563,-5.3e-4 1.09548,1e-5 2.19095,-0.003 3.28642,0.001 1.03581,5.3e-4 2.07161,-0.003 3.10742,-0.002 0.9441,0.003 1.88823,0.004 2.83233,0.001 1.02995,-0.002 2.05988,0.001 3.08983,-7.9e-4 1.17282,-0.003 2.34566,-0.004 3.51849,-0.002 1.24453,-0.003 2.48907,-0.002 3.73361,-1.7e-4 1.07649,0.002 2.15299,0.004 3.22948,-7.9e-4 1.2157,-0.002 2.4314,0.002 3.64709,1.4e-4 1.2484,-0.003 2.49679,0.002 3.74519,-0.002 1.41072,-5.3e-4 2.82144,-0.004 4.23216,-0.001 1.32399,5.2e-4 2.64799,0.003 3.97198,0.002 1.30415,0.002 2.60831,-0.003 3.91246,1e-4 1.1484,0.004 2.2968,0.004 3.44521,10e-6 1.43447,-0.005 2.86907,-0.0105 4.30347,0.007 0,0 -3.20163,-2.32613 -3.20163,-2.32613 z" />
      <path
         style="fill:#000000;stroke-width:0.264583"
         id="path349"
         d="m 30.889233,238.27016 c -0.01968,-1.11997 -0.01061,-2.24022 -0.0057,-3.36029 0.0088,-1.25316 -0.0091,-2.50627 -0.02685,-3.75927 -0.03488,-2.43766 -0.0084,-4.87553 0.0059,-7.31324 0.02191,-1.58083 0.0083,-3.16172 -0.0032,-4.74257 -0.01529,-2.59583 -0.0145,-5.19174 -0.0204,-7.78761 -0.01474,-2.68312 0.005,-5.36617 0.01789,-8.04923 0.0083,-1.94856 0.0058,-3.89714 0.0013,-5.8457 -0.0077,-2.3389 -0.0097,-4.67777 -0.0066,-7.01668 0.0064,-2.06077 0.0027,-4.12157 0.0126,-6.18234 0.01503,-1.51619 0.007,-3.03242 0.0046,-4.54865 0.0031,-1.33297 0.0098,-2.66589 0.0083,-3.99886 0.0016,-0.78494 5.29e-4,-0.40002 0.0034,-1.15475 0,0 -3.512008,-1.78946 -3.512008,-1.78946 v 0 c 0.0029,0.7573 0.0016,0.37124 0.0034,1.15818 -0.0016,1.33579 0.0052,2.67154 0.0083,4.00733 -0.0024,1.51778 -0.01042,3.03556 0.0046,4.55332 0.0099,2.06505 0.0062,4.13012 0.01259,6.19518 0.003,2.33664 0.0011,4.67326 -0.0066,7.00989 -0.0046,1.94898 -0.007,3.89798 0.0013,5.84696 0.01286,2.68913 0.03261,5.37827 0.01789,8.06746 -0.0059,2.58894 -0.0051,5.17792 -0.0204,7.76682 -0.01156,1.57977 -0.025,3.15958 -0.0031,4.73934 0.01415,2.4397 0.0408,4.87957 0.0059,7.31922 -0.01786,1.24388 -0.03568,2.48787 -0.02685,3.73191 0.0049,1.11813 0.01405,2.23644 -0.0057,3.35447 0,0 3.529894,1.79857 3.529894,1.79857 z" />
      <path
         style="fill:#000000;stroke-width:0.264583"
         id="path351"
         d="m 30.885444,237.50991 c -5.29e-4,-1.17186 -0.04654,-2.3469 0.0087,-3.51815 -1.178756,-0.48944 -2.306899,-1.12528 -3.536264,-1.46831 -0.15525,-0.0433 0.0051,0.32232 0.0069,0.48349 0.0082,0.76261 0.0052,1.52524 0.0027,2.28788 -0.0041,0.96348 -0.0016,1.92697 -0.0037,2.89046 -0.0011,0.40907 -0.0024,0.81814 -0.0033,1.22721 0,0 3.527692,1.79745 3.527692,1.79745 v 0 c -0.0011,-0.41017 -0.0021,-0.82035 -0.0033,-1.23052 -0.0021,-0.96475 2.64e-4,-1.92951 -0.0037,-2.89425 -0.0026,-0.76173 -0.0056,-1.52346 0.0027,-2.28516 0.0019,-0.15885 0.134543,-0.38202 0.0069,-0.47651 -1.106869,-0.8191 -2.357512,-1.42355 -3.536268,-2.13533 0.05286,1.17437 0.01111,2.35211 0.0087,3.52703 0,0 3.522316,1.79471 3.522316,1.79471 z" />
      <path
         style="fill:#000000;stroke-width:0.264583"
         id="path353"
         d="m 178.87557,295.0397 c -0.0492,-3.04461 -0.0632,-6.08975 -0.0844,-9.13468 -0.0372,-5.7077 -0.036,-11.4155 -0.0253,-17.12328 0.023,-5.39347 0.004,-10.78698 -7.9e-4,-16.18047 -0.0589,-6.94326 -0.0378,-13.88672 -0.018,-20.83009 0.0202,-6.18019 0.005,-12.36042 0.002,-18.54062 -0.003,-6.03441 0.0179,-12.06879 0.0106,-18.10319 -0.0229,-4.81409 0.0239,-9.62793 0.0618,-14.44176 0.008,-4.13654 -0.0399,-8.27285 -0.0427,-12.40941 -0.0153,-3.56934 0.0511,-7.13827 0.0613,-10.70746 -0.008,-2.00335 -0.017,-4.00666 -0.0168,-6.01002 0,0 -3.41454,-1.7398 -3.41454,-1.7398 v 0 c 1.9e-4,1.99765 -0.009,3.99525 -0.0168,5.99288 0.0103,3.59003 0.0765,7.17979 0.0614,10.76998 -0.003,4.12203 -0.0509,8.24382 -0.0427,12.36584 0.0378,4.83484 0.0846,9.66967 0.0618,14.50475 -0.007,6.038 0.0139,12.07597 0.0106,18.11398 -0.002,6.18101 -0.0179,12.36203 0.002,18.54303 0.0197,6.93725 0.041,13.87459 -0.018,20.81174 -0.005,5.39321 -0.0238,10.78643 -7.9e-4,16.17961 0.0106,5.69921 0.012,11.39839 -0.0253,17.09749 -0.0211,3.01625 -0.0349,6.03276 -0.0844,9.04869 0,0 3.51853,1.79279 3.51853,1.79279 z" />
      <path
         style="fill:#000000;stroke-width:0.264583"
         id="path355"
         d="m 31.20777,175.22898 c 2.115469,-0.0258 4.231193,-0.0216 6.346783,-0.0208 1.846236,0.0109 3.692488,0.005 5.538735,0.011 1.321453,0.006 2.642912,0.003 3.964371,0.007 1.030015,-5.3e-4 2.060022,0.002 3.090034,0.004 1.198174,0.0129 2.397278,-0.0554 3.59233,0.0441 0,0 -3.16683,-2.33151 -3.16683,-2.33151 v 0 c -1.207259,-0.0523 -2.41649,-0.0251 -3.624693,-0.0369 -1.025954,0.003 -2.051905,0.005 -3.077861,0.004 -1.315006,0.004 -2.630012,0.002 -3.945012,0.007 -1.83615,0.006 -3.672303,7e-5 -5.508442,0.011 -2.134719,7.9e-4 -4.269566,0.005 -6.404168,-0.0208 0,0 3.194753,2.32113 3.194753,2.32113 z" />
      <ellipse
         style="fill:#000000;stroke-width:0.264583"
         id="path409"
         cx="64.175026"
         cy="174.23775"
         rx="11.006271"
         ry="8.6356897" />
      <path
         style="fill:#000000;stroke-width:0.264583"
         d="m 73.826681,173.3911 c 15.916762,0 31.833519,0 47.750289,0"
         id="path411" />
      <path
         style="fill:#000000;stroke-width:0.264583"
         id="path413"
         d="m 77.681015,175.22648 c 2.862593,-0.0391 5.725641,-0.0343 8.588446,-0.0306 2.682679,0.003 5.365356,0.009 8.048038,0.0107 2.373082,0.006 4.74618,0.001 7.119271,-0.003 2.87717,-0.005 5.75435,-0.006 8.63153,-0.005 2.43006,-2.2e-4 4.86015,0.006 7.29019,0.0163 1.41399,0.01 2.82797,0.008 4.24197,0.007 1.75848,-0.002 3.51691,-0.0103 5.27539,-0.009 1.41962,-7.9e-4 2.83923,0.004 4.25883,0.009 0,0 -3.17696,-2.30819 -3.17696,-2.30819 v 0 c -1.41133,0.005 -2.82267,0.01 -4.23401,0.009 -1.76683,0.001 -3.53361,-0.008 -5.30043,-0.009 -1.4072,-5.3e-4 -2.81438,-0.002 -4.22157,0.007 -2.41509,0.0107 -4.83022,0.0165 -7.24532,0.0163 -2.88175,7.9e-4 -5.7635,8e-5 -8.645241,-0.005 -2.375572,-0.004 -4.751158,-0.008 -7.12673,-0.003 -2.67285,0.002 -5.345697,0.008 -8.018547,0.0107 -2.890901,0.004 -5.782032,0.008 -8.672732,-0.0306 0,0 3.187875,2.31613 3.187875,2.31613 z" />
      <path
         style="fill:#000000;stroke-width:0.264583"
         id="path421"
         d="m 86.629562,173.65813 c -0.0019,1.52608 0.01789,3.04613 0.151246,4.56673 0.09886,0.98353 0.150276,1.97017 0.176067,2.95799 0.09256,0.72154 -0.200006,1.63682 0.268465,2.27562 0.124169,0.16932 0.286361,0.31725 0.469516,0.41991 1.358678,0.76159 2.760755,1.44302 4.141134,2.16453 1.952146,0.3254 3.938357,0.35187 5.912668,0.3777 0.866282,0.0508 1.739378,-0.0524 2.605022,-0.008 0.5803,0.0294 1.38017,0.15758 1.93787,0.23627 0,0 -3.111719,-2.32653 -3.111719,-2.32653 v 0 c -1.530326,-0.20579 -3.052995,-0.26033 -4.596392,-0.20617 -1.952651,-0.0165 -3.930755,-0.0286 -5.842008,-0.47251 0.872842,0.55739 1.761252,1.09113 2.618526,1.67218 0.161788,0.10965 -0.371017,-0.13861 -0.527899,-0.25518 -0.125026,-0.0929 -0.241565,-0.21435 -0.298916,-0.35917 -0.208537,-0.52657 0.04357,-1.19299 -0.05744,-1.73435 -0.01498,-0.99829 -0.05485,-1.99539 -0.172145,-2.98779 -0.147596,-1.50719 -0.236977,-3.01222 -0.155472,-4.528 0,0 -3.518527,-1.79278 -3.518527,-1.79278 z" />
      <path
         style="fill:#000000;stroke-width:0.264583"
         id="path423"
         d="m 89.813221,173.54568 c -0.03416,-1.75497 -0.02622,-3.5105 -0.02392,-5.26572 0.09815,-0.82328 -0.332531,-2.75121 0.462039,-3.31803 0.149945,-0.10696 0.335664,-0.15176 0.503495,-0.22764 1.450871,-0.39227 2.969209,-0.38587 4.461303,-0.38749 1.80585,0.009 3.611713,0.0148 5.417582,0.0173 2.23441,-0.002 4.46881,0.005 6.70319,0.0157 0,0 -3.16078,-2.29664 -3.16078,-2.29664 v 0 c -2.22755,0.009 -4.455172,0.013 -6.682702,-0.002 -1.81932,-0.0112 -3.638563,-0.0334 -5.457875,-0.0408 -1.534457,0.0233 -3.108079,0.0297 -4.573143,0.54022 -0.473123,0.28416 -0.720738,0.33209 -0.967902,0.84801 -0.445272,0.92944 -0.05156,2.10632 -0.183472,3.07955 0.0024,1.74709 0.01042,3.49451 -0.02392,5.24134 0,0 3.526105,1.79664 3.526105,1.79664 z" />
      <path
         style="fill:#000000;stroke-width:0.264583"
         id="path466"
         d="m 130.51862,173.21979 c 2.56254,-1.28454 5.30492,-2.20146 8.07089,-2.93541 3.29732,-0.75469 6.67431,-1.01163 10.04527,-1.14539 1.49917,-0.0568 3.02926,-0.0656 4.50728,-0.36125 0.91812,-0.18368 1.2148,-0.33893 2.05774,-0.66795 0.88037,-0.36546 0.4764,-0.25261 1.19325,-0.39932 0,0 -3.25631,-2.23617 -3.25631,-2.23617 v 0 c -0.70344,0.23851 -0.31044,0.0917 -1.17068,0.46219 -0.8584,0.32241 -1.04606,0.4338 -1.9873,0.60473 -1.47673,0.26817 -2.99207,0.25258 -4.48457,0.33896 -3.37066,0.19059 -6.74572,0.47813 -10.04176,1.24769 -2.80898,0.75397 -5.57755,1.68826 -8.2177,2.91651 0,0 3.28389,2.17541 3.28389,2.17541 z" />
      <path
         style="fill:#000000;stroke-width:0.277332"
         id="path466-6"
         d="m 130.93962,173.53865 c 2.56254,1.41132 5.30492,2.41873 8.07089,3.22512 3.29732,0.82917 6.67431,1.11147 10.04527,1.25843 1.49917,0.0624 3.02926,0.0721 4.50728,0.39691 0.91812,0.2018 1.2148,0.37238 2.05774,0.73387 0.88037,0.40153 0.4764,0.27754 1.19325,0.43873 0,0 -3.25631,2.45687 -3.25631,2.45687 v 0 c -0.70344,-0.26205 -0.31044,-0.10075 -1.17068,-0.50781 -0.8584,-0.35423 -1.04606,-0.47661 -1.9873,-0.66441 -1.47673,-0.29464 -2.99207,-0.27751 -4.48457,-0.37242 -3.37066,-0.2094 -6.74572,-0.52531 -10.04176,-1.37083 -2.80898,-0.82838 -5.57755,-1.85488 -8.2177,-3.20435 0,0 3.28389,-2.39011 3.28389,-2.39011 z" />
    </g>
  </g>
</svg>
