<?xml version="1.0" encoding="UTF-8" standalone="no"?>
<!-- Created with Inkscape (http://www.inkscape.org/) -->

<svg
   width="18mm"
   height="123mm"
   viewBox="0 0 18 123"
   version="1.1"
   id="svg5"
   sodipodi:docname="hangman6.svg"
   inkscape:version="1.2.2 (732a01da63, 2022-12-09)"
   xmlns:inkscape="http://www.inkscape.org/namespaces/inkscape"
   xmlns:sodipodi="http://sodipodi.sourceforge.net/DTD/sodipodi-0.dtd"
   xmlns="http://www.w3.org/2000/svg"
   xmlns:svg="http://www.w3.org/2000/svg">
  <sodipodi:namedview
     id="namedview7"
     pagecolor="#ffffff"
     bordercolor="#000000"
     borderopacity="0.25"
     inkscape:showpageshadow="2"
     inkscape:pageopacity="0.0"
     inkscape:pagecheckerboard="true"
     inkscape:deskcolor="#d1d1d1"
     inkscape:document-units="mm"
     showgrid="false"
     inkscape:zoom="1.104894"
     inkscape:cx="-133.04444"
     inkscape:cy="355.69022"
     inkscape:window-width="1920"
     inkscape:window-height="1057"
     inkscape:window-x="1912"
     inkscape:window-y="-8"
     inkscape:window-maximized="1"
     inkscape:current-layer="g657"
     showguides="true">
    <inkscape:grid
       type="xygrid"
       id="grid178"
       originx="0"
       originy="0" />
  </sodipodi:namedview>
  <defs
     id="defs2" />
  <g
     inkscape:label="Layer 1"
     inkscape:groupmode="layer"
     id="layer1">
    <g
       id="g657"
       transform="rotate(90,161.69179,136.07241)">
      <path
         style="fill:#000000;stroke-width:0.157141"
         id="path355"
         d="m 30.142339,288.87893 c 2.092844,-0.009 4.185939,-0.008 6.278903,-0.007 1.82649,0.004 3.652996,0.002 5.479497,0.004 1.307319,0.002 2.614645,0.001 3.921971,0.002 1.018998,-1.9e-4 2.037989,7.1e-4 3.056985,0.001 1.185359,0.005 2.371638,-0.0198 3.553909,0.0157 0,0 -3.13296,-0.83131 -3.13296,-0.83131 v 0 c -1.194347,-0.0186 -2.390645,-0.009 -3.585926,-0.0131 -1.014981,10e-4 -2.029959,0.002 -3.044942,10e-4 -1.300942,10e-4 -2.601884,7.1e-4 -3.90282,0.003 -1.816511,0.002 -3.633026,2e-5 -5.449527,0.004 -2.111888,2.8e-4 -4.223902,0.002 -6.335674,-0.007 0,0 3.160584,0.82761 3.160584,0.82761 z" />
      <ellipse
         style="fill:#000000;stroke-width:0.264583"
         id="path409"
         cx="58.444099"
         cy="288.87451"
         rx="11.006271"
         ry="8.6356897" />
      <path
         style="fill:#000000;stroke-width:0.264583"
         d="m 72.520262,281.59343 c 15.916762,0 31.833508,0 47.750278,0"
         id="path411" />
      <path
         style="fill:#000000;stroke-width:0.268995"
         id="path413"
         d="m 69.348062,289.35527 c 2.958865,-0.0391 5.918202,-0.0343 8.877287,-0.0306 2.772901,0.003 5.5458,0.009 8.318704,0.0107 2.452892,0.006 4.905805,10e-4 7.358705,-0.003 2.973923,-0.005 5.94787,-0.006 8.921802,-0.005 2.51179,-2.2e-4 5.0236,0.006 7.53537,0.0163 1.46154,0.01 2.92308,0.008 4.38463,0.007 1.81762,-0.002 3.63519,-0.0103 5.45281,-0.009 1.46737,-7.9e-4 2.93472,0.004 4.40206,0.009 0,0 -3.2838,-2.30819 -3.2838,-2.30819 v 0 c -1.4588,0.005 -2.9176,0.01 -4.37641,0.009 -1.82625,10e-4 -3.65245,-0.008 -5.47869,-0.009 -1.45453,-5.3e-4 -2.90903,-0.002 -4.36355,0.007 -2.49631,0.0107 -4.99266,0.0165 -7.48898,0.0163 -2.978667,7.9e-4 -5.957324,8e-5 -8.935981,-0.005 -2.45547,-0.004 -4.91095,-0.008 -7.366416,-0.003 -2.762741,0.002 -5.52548,0.008 -8.288221,0.0107 -2.988126,0.004 -5.97649,0.008 -8.964408,-0.0306 0,0 3.295088,2.31613 3.295088,2.31613 z" />
      <path
         style="fill:#000000;stroke-width:0.211829"
         id="path421"
         d="m 80.898634,287.99557 c -0.0019,0.96346 0.01816,1.92311 0.153558,2.88311 0.100372,0.62094 0.152574,1.24383 0.178759,1.86747 0.09398,0.45553 -0.203064,1.03338 0.27257,1.43667 0.126067,0.1069 0.290739,0.20029 0.476695,0.2651 1.379451,0.48082 2.802965,0.91102 4.204449,1.36653 1.981993,0.20544 3.998573,0.22215 6.003069,0.23846 0.879525,0.0321 1.765974,-0.0331 2.644849,-0.005 0.589172,0.0186 1.401272,0.0995 1.967499,0.14916 0,0 -3.159297,-1.46881 -3.159297,-1.46881 v 0 c -1.553717,-0.12992 -3.099668,-0.16435 -4.666664,-0.13016 -1.982506,-0.0104 -3.990854,-0.0181 -5.931329,-0.29831 0.886187,0.3519 1.788181,0.68888 2.658562,1.05571 0.164262,0.0692 -0.37669,-0.0875 -0.53597,-0.16111 -0.126938,-0.0587 -0.245259,-0.13533 -0.303487,-0.22676 -0.211725,-0.33244 0.04424,-0.75317 -0.05832,-1.09495 -0.01521,-0.63025 -0.05569,-1.25974 -0.174777,-1.88628 -0.149853,-0.95153 -0.2406,-1.9017 -0.157849,-2.85866 0,0 -3.572323,-1.13184 -3.572323,-1.13184 z" />
      <path
         style="fill:#000000;stroke-width:0.277332"
         id="path466-6"
         d="m 121.48348,286.88918 c 2.56254,1.41132 5.30492,2.41873 8.07089,3.22512 3.29732,0.82917 6.67431,1.11147 10.04527,1.25843 1.49917,0.0624 3.02926,0.0721 4.50728,0.39691 0.91812,0.2018 1.2148,0.37238 2.05774,0.73387 0.88037,0.40153 0.4764,0.27754 1.19325,0.43873 0,0 -3.25631,2.45687 -3.25631,2.45687 v 0 c -0.70344,-0.26205 -0.31044,-0.10075 -1.17068,-0.50781 -0.8584,-0.35423 -1.04606,-0.47661 -1.9873,-0.66441 -1.47673,-0.29464 -2.99207,-0.27751 -4.48457,-0.37242 -3.37066,-0.2094 -6.74572,-0.52531 -10.04176,-1.37083 -2.80898,-0.82838 -5.57755,-1.85488 -8.2177,-3.20435 0,0 3.28389,-2.39011 3.28389,-2.39011 z" />
      <path
         style="fill:#000000;stroke-width:0.229078"
         id="path196"
         d="m 80.898643,289.24318 c -0.0021,-1.04785 0.01953,-2.09156 0.165121,-3.13566 0.107929,-0.67532 0.164061,-1.35278 0.192218,-2.03103 0.101052,-0.49543 -0.218353,-1.12389 0.293094,-1.56252 0.135559,-0.11626 0.31263,-0.21783 0.512587,-0.28833 1.483319,-0.52293 3.014018,-0.99082 4.521028,-1.48623 2.13123,-0.22343 4.299649,-0.2416 6.455076,-0.25934 0.945749,-0.0349 1.898945,0.036 2.843996,0.005 0.633534,-0.0202 1.506782,-0.1082 2.115643,-0.16223 0,0 -3.397178,1.59747 -3.397178,1.59747 v 0 c -1.670707,0.1413 -3.333062,0.17875 -5.018046,0.14156 -2.131781,0.0113 -4.291349,0.0196 -6.377934,0.32444 0.952913,-0.38272 1.922823,-0.7492 2.858741,-1.14817 0.176629,-0.0753 -0.405053,0.0952 -0.576327,0.17522 -0.136496,0.0638 -0.263726,0.14718 -0.326338,0.24661 -0.227667,0.36156 0.04757,0.81915 -0.06271,1.19086 -0.01635,0.68546 -0.05988,1.3701 -0.187937,2.05151 -0.161136,1.03488 -0.258717,2.06828 -0.169735,3.10906 0,0 -3.841305,1.23098 -3.841305,1.23098 z" />
    </g>
  </g>
</svg>
